<svg width="40" height="37" viewBox="0 0 40 37" fill="none" xmlns="http://www.w3.org/2000/svg">
<path d="M21.5467 31.8702L22.2241 29.3827L23.9484 29.8522C24.8718 30.1036 25.7249 30.1487 26.5077 29.9873C27.2905 29.826 27.9541 29.4703 28.4986 28.9202C29.0431 28.3701 29.4334 27.6616 29.6695 26.7948C29.8568 26.1069 29.919 25.3951 29.8562 24.6594L27.623 24.0513C27.6499 24.6963 27.5901 25.2873 27.4439 25.8244C27.2361 26.5876 26.8877 27.1051 26.3987 27.3768C25.9217 27.6416 25.2922 27.6676 24.5102 27.4546L22.8706 27.0082L23.9483 23.0507L21.9695 22.5119L20.8919 26.4694L8.28454 23.0364L7.63797 25.4109L20.2453 28.8438L19.568 31.3314L21.5467 31.8702Z" fill="black"/>
<circle cx="29.7119" cy="9.9043" r="8.9043" stroke="black" stroke-width="2"/>
<circle cx="9.9043" cy="9.9043" r="8.9043" stroke="black" stroke-width="2"/>
<ellipse cx="10.6656" cy="10.6659" rx="3.04748" ry="3.04748" fill="black"/>
<ellipse cx="28.9513" cy="10.6659" rx="3.04748" ry="3.04748" fill="black"/>
</svg>
