<svg width="50" height="70" viewBox="0 0 50 70" fill="none" xmlns="http://www.w3.org/2000/svg">
<path d="M25 0C11.1984 0 0 10.0797 0 22.5C0 42.5 25 70 25 70C25 70 50 42.5 50 22.5C50 10.0797 38.8016 0 25 0ZM25 35C23.0222 35 21.0888 34.4135 19.4443 33.3147C17.7998 32.2159 16.5181 30.6541 15.7612 28.8268C15.0043 26.9996 14.8063 24.9889 15.1921 23.0491C15.578 21.1093 16.5304 19.3275 17.9289 17.9289C19.3275 16.5304 21.1093 15.578 23.0491 15.1921C24.9889 14.8063 26.9996 15.0043 28.8268 15.7612C30.6541 16.5181 32.2159 17.7998 33.3147 19.4443C34.4135 21.0888 35 23.0222 35 25C34.9971 27.6513 33.9426 30.1931 32.0679 32.0679C30.1931 33.9426 27.6513 34.9971 25 35Z" fill="#45A4A9"/>
</svg>
